HIERARCHY
ROOT Hips
{
	OFFSET 50.313202 -8.662989 50.338299
	CHANNELS 6 Xposition Yposition Zposition Xrotation Yrotation Zrotation
	JOINT spine
	{
		OFFSET 0.000000 -0.507025 8.817039
		CHANNELS 3 Xrotation Yrotation Zrotation
		JOINT spine1
		{
			OFFSET 0.000000 -0.000002 10.776600
			CHANNELS 3 Xrotation Yrotation Zrotation
			JOINT spine2
			{
				OFFSET 0.000000 -0.000002 10.325897
				CHANNELS 3 Xrotation Yrotation Zrotation
				JOINT Neck
				{
					OFFSET 0.000000 -1.263954 26.511002
					CHANNELS 3 Xrotation Yrotation Zrotation
					JOINT Head
					{
						OFFSET 0.000000 -0.000002 8.009659
						CHANNELS 3 Xrotation Yrotation Zrotation
						End Site
						{
							OFFSET 0.000000 6.393857 19.387901
						}
					}
				}
				JOINT RightShoulder
				{
					OFFSET -4.347950 0.605420 11.151199
					CHANNELS 3 Xrotation Yrotation Zrotation
					JOINT RightArm
					{
						OFFSET 0.000000 -0.000002 14.625801
						CHANNELS 3 Xrotation Yrotation Zrotation
						JOINT RightArmRoll
						{
							OFFSET 0.000000 -0.000001 7.383400
							CHANNELS 3 Xrotation Yrotation Zrotation
							JOINT RightForeArm
							{
								OFFSET 0.000000 -0.000004 21.505196
								CHANNELS 3 Xrotation Yrotation Zrotation
								JOINT RightForeArmRoll
								{
									OFFSET 0.000000 -0.000001 8.285309
									CHANNELS 3 Xrotation Yrotation Zrotation
									JOINT RightHand
									{
										OFFSET 0.000000 -0.000003 16.626801
										CHANNELS 3 Xrotation Yrotation Zrotation
										End Site
										{
											OFFSET 0.000000 0.000000 0.100006
										}
									}
								}
							}
						}
					}
				}
				JOINT LeftShoulder
				{
					OFFSET 4.347950 0.605420 11.151199
					CHANNELS 3 Xrotation Yrotation Zrotation
					JOINT LeftArm
					{
						OFFSET 0.000000 -0.000002 14.625801
						CHANNELS 3 Xrotation Yrotation Zrotation
						JOINT LeftArmRoll
						{
							OFFSET 0.000000 -0.000001 7.383400
							CHANNELS 3 Xrotation Yrotation Zrotation
							JOINT LeftForeArm
							{
								OFFSET 0.000000 -0.000004 21.505196
								CHANNELS 3 Xrotation Yrotation Zrotation
								JOINT LeftForeArmRoll
								{
									OFFSET 0.000000 -0.000001 8.285324
									CHANNELS 3 Xrotation Yrotation Zrotation
									JOINT LeftHand
									{
										OFFSET 0.000000 -0.000003 16.626801
										CHANNELS 3 Xrotation Yrotation Zrotation
										End Site
										{
											OFFSET 0.000000 0.000000 0.100006
										}
									}
								}
							}
						}
					}
				}
			}
		}
	}
	JOINT RightUpLeg
	{
		OFFSET -7.815102 1.202170 -1.433090
		CHANNELS 3 Xrotation Yrotation Zrotation
		JOINT RightUpLegRoll
		{
			OFFSET 0.000000 -0.000003 19.495899
			CHANNELS 3 Xrotation Yrotation Zrotation
			JOINT RightLeg
			{
				OFFSET 0.000000 0.000004 -24.142700
				CHANNELS 3 Xrotation Yrotation Zrotation
				JOINT RightLegRoll
				{
					OFFSET 0.000000 -0.000004 24.221703
					CHANNELS 3 Xrotation Yrotation Zrotation
					JOINT RightFoot
					{
						OFFSET 0.000000 -0.000003 20.160500
						CHANNELS 3 Xrotation Yrotation Zrotation
						JOINT RightToeBase
						{
							OFFSET 0.000000 -0.000003 16.853203
							CHANNELS 3 Xrotation Yrotation Zrotation
							End Site
							{
								OFFSET 0.007145 0.940780 8.161873
							}
						}
					}
				}
			}
		}
	}
	JOINT LeftUpLeg
	{
		OFFSET 7.815102 1.202170 -1.433090
		CHANNELS 3 Xrotation Yrotation Zrotation
		JOINT LeftUpLegRoll
		{
			OFFSET 0.000000 -0.000003 19.495998
			CHANNELS 3 Xrotation Yrotation Zrotation
			JOINT LeftLeg
			{
				OFFSET 0.000000 -0.000004 24.142601
				CHANNELS 3 Xrotation Yrotation Zrotation
				JOINT LeftLegRoll
				{
					OFFSET 0.000000 -0.000004 24.445602
					CHANNELS 3 Xrotation Yrotation Zrotation
					JOINT LeftFoot
					{
						OFFSET 0.000000 -0.000003 19.936600
						CHANNELS 3 Xrotation Yrotation Zrotation
						JOINT LeftToeBase
						{
							OFFSET 0.000000 -0.000003 16.853195
							CHANNELS 3 Xrotation Yrotation Zrotation
							End Site
							{
								OFFSET -0.032013 0.940780 8.161865
							}
						}
					}
				}
			}
		}
	}
}
MOTION
Frames: 6
Frame Time: 0.041667
48.249504 -41.723213 100.794998 -3.925655 0.067349 1.584892 -1.623453 -0.221156 -0.106455 0.746772 -0.438673 -0.226347 2.391872 -0.443954 -0.221192 26.766745 1.255582 3.310701 -11.540972 2.602943 3.371537 -3.596577 -66.359932 -5.013440 -50.381374 -115.783796 -34.264279 0.000000 0.000007 -0.000000 0.102964 -12.554784 -0.381506 0.000005 0.000005 -3.016982 -5.000219 -7.998743 0.000162 -12.092739 60.920827 14.386832 -35.234511 117.151541 30.268840 0.000002 0.000001 -0.000001 3.439926 12.835305 -0.030661 -0.000001 -0.000012 3.000001 -5.000240 7.998703 -0.000174 2.450068 -177.937889 -0.020895 -179.999991 0.000005 -1.179996 171.624226 -0.886452 -0.547507 -0.000002 0.000001 0.115577 69.856286 6.884975 2.096544 26.016650 -7.347847 0.837594 2.115668 176.195590 1.720111 -0.000005 -0.000005 -1.182030 -8.596736 1.671726 0.479895 -0.000002 0.000004 -0.148481 70.073445 -6.894279 -2.039611 25.926558 7.350138 -0.699450 
48.240704 -41.722107 100.800003 -3.926690 0.069359 1.586341 -1.621661 -0.221229 -0.106900 0.751956 -0.438948 -0.227093 2.397052 -0.444040 -0.221925 26.768468 1.257982 3.312803 -11.520347 2.602820 3.373096 -3.603604 -66.345753 -5.020037 -50.367260 -115.803576 -34.257504 -0.000001 0.000007 -0.000001 0.102965 -12.556383 -0.381581 0.000007 0.000006 -3.016980 -5.000217 -7.998742 0.000163 -12.092158 60.913997 14.385854 -35.237916 117.162784 30.276207 -0.000000 0.000001 -0.000000 3.443365 12.834960 -0.031821 -0.000000 -0.000012 3.000001 -5.000240 7.998700 -0.000173 2.444722 -177.939870 -0.022665 -179.999991 0.000005 -1.179996 171.621193 -0.886446 -0.547554 -0.000002 0.000001 0.115593 69.854257 6.884946 2.096566 26.016243 -7.347846 0.836951 2.107326 176.193568 1.720042 -0.000005 -0.000004 -1.182020 -8.604656 1.670791 0.480817 -0.000002 0.000004 -0.148474 70.075145 -6.894285 -2.039606 25.925240 7.350139 -0.697513 
48.240303 -41.709312 100.808998 -3.927673 0.071416 1.587843 -1.619932 -0.221292 -0.107362 0.757092 -0.439181 -0.227885 2.402192 -0.444077 -0.222704 26.770001 1.260644 3.314959 -11.500416 2.601936 3.374753 -3.612626 -66.330918 -5.028829 -50.353650 -115.823561 -34.251578 -0.000001 0.000006 -0.000001 0.102965 -12.557983 -0.381693 0.000004 0.000007 -3.016981 -5.000221 -7.998743 0.000162 -12.091734 60.906757 14.385026 -35.241355 117.173999 30.283560 0.000002 0.000000 -0.000000 3.446758 12.834416 -0.033011 -0.000001 -0.000012 3.000001 -5.000239 7.998702 -0.000174 2.439181 -177.942875 -0.024545 -179.999991 0.000005 -1.179996 171.617683 -0.885438 -0.547461 -0.000003 0.000001 0.115618 69.852666 6.884927 2.096561 26.015738 -7.347849 0.836222 2.098820 176.191546 1.720243 -0.000005 -0.000004 -1.182020 -8.612904 1.669578 0.481762 -0.000002 0.000004 -0.148463 70.077160 -6.894268 -2.039578 25.924126 7.350134 -0.695936 
48.247005 -41.703812 100.807999 -3.928635 0.073505 1.589368 -1.618252 -0.221346 -0.107837 0.762195 -0.439383 -0.228708 2.407293 -0.444079 -0.223515 26.771428 1.263494 3.317161 -11.480984 2.600519 3.376467 -3.623059 -66.315748 -5.039189 -50.337364 -115.845063 -34.242983 -0.000001 0.000007 -0.000001 0.102961 -12.559583 -0.381829 0.000006 0.000006 -3.016981 -5.000220 -7.998742 0.000163 -12.091416 60.899196 14.384320 -35.244770 117.185241 30.290875 0.000001 0.000001 -0.000001 3.450101 12.833776 -0.034221 -0.000001 -0.000012 3.000001 -5.000239 7.998700 -0.000173 2.433495 -177.945853 -0.026471 -179.999991 0.000005 -1.179996 171.613885 -0.885429 -0.547519 -0.000002 0.000001 0.115649 69.851382 6.884888 2.096532 26.015238 -7.347843 0.835460 2.090208 176.189524 1.720632 -0.000005 -0.000005 -1.182010 -8.621361 1.668156 0.482720 -0.000001 0.000004 -0.148450 70.079175 -6.894285 -2.039555 25.923225 7.350137 -0.694615 
48.250004 -41.706108 100.794998 -3.929561 0.075612 1.590914 -1.616600 -0.221396 -0.108319 0.767277 -0.439568 -0.229549 2.412374 -0.444059 -0.224344 26.772663 1.266445 3.319389 -11.461750 2.598784 3.378217 -3.634284 -66.300277 -5.050412 -50.323160 -115.866127 -34.236678 -0.000000 0.000007 0.000000 0.102961 -12.561183 -0.381981 0.000003 0.000006 -3.016981 -5.000220 -7.998742 0.000163 -12.091092 60.891335 14.383586 -35.248175 117.196484 30.298162 0.000003 0.000000 0.000000 3.453422 12.833032 -0.035444 -0.000001 -0.000012 3.000001 -5.000238 7.998700 -0.000174 2.427737 -177.948845 -0.028425 -179.999991 0.000005 -1.179996 171.609924 -0.885420 -0.547581 -0.000003 0.000001 0.115682 69.850302 6.884819 2.096587 26.014731 -7.347839 0.834678 2.081534 176.186519 1.721090 -0.000005 -0.000005 -1.182010 -8.629947 1.666635 0.483690 -0.000002 0.000004 -0.148436 70.081293 -6.894269 -2.039721 25.922518 7.350125 -0.693447 
48.245804 -41.707008 100.802002 -3.930494 0.077725 1.592460 -1.614951 -0.221445 -0.108803 0.772355 -0.439749 -0.230396 2.417454 -0.444035 -0.225177 26.774000 1.269421 3.321621 -11.442613 2.596990 3.379972 -3.645669 -66.284793 -5.061818 -50.307236 -115.887779 -34.228605 -0.000001 0.000007 -0.000000 0.102966 -12.562782 -0.382138 0.000005 0.000006 -3.016982 -5.000221 -7.998742 0.000163 -12.090837 60.883555 14.382944 -35.250477 117.208532 30.304207 0.000001 0.000001 0.000000 3.456736 12.832289 -0.036669 0.000000 -0.000012 3.000000 -5.000239 7.998701 -0.000174 2.421960 -177.951836 -0.030385 -179.999991 0.000005 -1.179996 171.605894 -0.885410 -0.547643 -0.000002 0.000001 0.115717 69.849230 6.884786 2.096549 26.014119 -7.347850 0.833878 2.072841 176.184484 1.721606 -0.000005 -0.000005 -1.182010 -8.638565 1.665074 0.484658 -0.000002 0.000004 -0.148421 70.083512 -6.894257 -2.039682 25.921703 7.350119 -0.692298 
